<?xml version="1.0" encoding="utf-8"?>
<?xml-stylesheet type="text/xsl" href="rss1.xsl"?>
<rss version="2.0" xmlns:atom="http://www.w3.org/2005/Atom" xmlns:content="http://purl.org/rss/1.0/modules/content/" xmlns:dc="http://purl.org/dc/elements/1.1/" xmlns:media="http://search.yahoo.com/mrss/">
<channel>
 <title>Getty</title>
 <link>http://www.gettyimg.com/</link>
 <atom:link href="http://www.gettyimg.com/" rel="self" type="application/rss+xml" />

 
                <item>
                <title><![CDATA[【HD Live Performances】HDTV - Wizkid - Live @ Glastonbury 2023 HDTV H264 1080i DD2.0-ilya2129]]></title>
                <link><![CDATA[https://sharemania.us/threads/wizkid-live-glastonbury-2023-hdtv-h264-1080i-dd2-0-ilya2129.223285/]]></link>
                <description><![CDATA[<article>
<blockquote class="messageText SelectQuoteContainer ugc baseHtml">
<div style="text-align: center"><img src="https://i122.fastpic.org/big/2023/0623/b4/b37c6294354538a70aac338bdf3af5b4.png?r=1" class="bbCodeImage LbImage" alt="[​IMG]" data-url="https://i122.fastpic.org/big/2023/0623/b4/b37c6294354538a70aac338bdf3af5b4.png?r=1" style=""><br>
<br>
<a href="https://postimg.cc/sM1XGYG0" target="_blank" class="externalLink" rel="nofollow"><img src="https://i.postimg.cc/sM1XGYG0/vlcsnap-2023-06-24-15h45m42s801.png" class="bbCodeImage LbImage" alt="[​IMG]" data-url="https://i.postimg.cc/sM1XGYG0/vlcsnap-2023-06-24-15h45m42s801.png"></a> <a href="https://postimg.cc/62V5xzFT" target="_blank" class="externalLink" rel="nofollow"><img src="https://i.postimg.cc/62V5xzFT/vlcsnap-2023-06-24-15h45m44s646.png" class="bbCodeImage LbImage" alt="[​IMG]" data-url="https://i.postimg.cc/62V5xzFT/vlcsnap-2023-06-24-15h45m44s646.png"></a> <a href="https://postimg.cc/30Kr8mH1" target="_blank" class="externalLink" rel="nofollow"><img src="https://i.postimg.cc/30Kr8mH1/vlcsnap-2023-06-24-15h45m47s105.png" class="bbCodeImage LbImage" alt="[​IMG]" data-url="https://i.postimg.cc/30Kr8mH1/vlcsnap-2023-06-24-15h45m47s105.png"></a> <a href="https://postimg.cc/G8nhf67Z" target="_blank" class="externalLink" rel="nofollow"><img src="https://i.postimg.cc/G8nhf67Z/vlcsnap-2023-06-24-15h45m50s019.png" class="bbCodeImage LbImage" alt="[​IMG]" data-url="https://i.postimg.cc/G8nhf67Z/vlcsnap-2023-06-24-15h45m50s019.png"></a> <a href="https://postimg.cc/9zVQY5q9" target="_blank" class="externalLink" rel="nofollow"><img src="https://i.postimg.cc/9zVQY5q9/vlcsnap-2023-06-24-15h45m52s272.png" class="bbCodeImage LbImage" alt="[​IMG]" data-url="https://i.postimg.cc/9zVQY5q9/vlcsnap-2023-06-24-15h45m52s272.png"></a> <br>
​</div><br>
<div class="bbCodeBlock bbCodeCode">
<div class="type">Code:</div>
<pre>General
ID                                       : 1 (0x1)
Complete name                            : D:\Wizkid - Live @ Glastonbury 2023 HDTV H264 1080i DD2.0-ilya2129.ts
Format                                   : MPEG-TS
File size                                : 2.82 GiB
Duration                                 : 55 min 10 s
Overall bit rate mode                    : Variable
Overall bit rate                         : 7 323 kb/s
Frame rate                               : 25.000 FPS

Video
ID                                       : 302 (0x12E)
Menu ID                                  : 1 (0x1)
Format                                   : AVC
Format/Info                              : Advanced Video Codec
Format profile                           : High@L4
Format settings                          : CABAC / 4 Ref Frames
Format settings, CABAC                   : Yes
Format settings, Reference frames        : 4 frames
Format settings, GOP                     : M=8, N=24
Codec ID                                 : 27
Duration                                 : 55 min 9 s
Bit rate                                 : 6 509 kb/s
Width                                    : 1 920 pixels
Height                                   : 1 080 pixels
Display aspect ratio                     : 16:9
Frame rate                               : 25.000 FPS
Standard                                 : Component
Color space                              : YUV
Chroma subsampling                       : 4:2:0
Bit depth                                : 8 bits
Scan type                                : MBAFF
Scan type, store method                  : Interleaved fields
Scan order                               : Top Field First
Bits/(Pixel*Frame)                       : 0.126
Stream size                              : 2.51 GiB (89%)
Color range                              : Limited
Color primaries                          : BT.709
Transfer characteristics                 : BT.709
Matrix coefficients                      : BT.709

Audio #1
ID                                       : 303 (0x12F)
Menu ID                                  : 1 (0x1)
Format                                   : MPEG Audio
Format version                           : Version 1
Format profile                           : Layer 2
Codec ID                                 : 3
Duration                                 : 55 min 9 s
Bit rate mode                            : Constant
Bit rate                                 : 256 kb/s
Channel(s)                               : 2 channels
Sampling rate                            : 48.0 kHz
Frame rate                               : 41.667 FPS (1152 SPF)
Compression mode                         : Lossy
Delay relative to video                  : -160 ms
Stream size                              : 101 MiB (3%)
Language                                 : nar

Audio #2
ID                                       : 304 (0x130)
Menu ID                                  : 1 (0x1)
Format                                   : AC-3
Format/Info                              : Audio Coding 3
Commercial name                          : Dolby Digital
Codec ID                                 : 6
Duration                                 : 55 min 9 s
Bit rate mode                            : Constant
Bit rate                                 : 192 kb/s
Channel(s)                               : 2 channels
Channel layout                           : L R
Sampling rate                            : 48.0 kHz
Frame rate                               : 31.250 FPS (1536 SPF)
Compression mode                         : Lossy
Delay relative to video                  : -160 ms
Stream size                              : 75.7 MiB (3%)
Language                                 : English
Service kind                             : Complete Main

Text
ID                                       : 310 (0x136)-888
Menu ID                                  : 1 (0x1)
Format                                   : Teletext Subtitle
Language                                 : English

</pre>
</div>
<div class="bbCodeBlock bbCodeVfcHH HiddenContent">
<div class="attribution type">Hidden Content:</div>
<blockquote>You must reply before you can see the hidden data contained here.</blockquote>
</div>
<div class="messageTextEndMarker">&nbsp;</div>
</blockquote>
</article>]]></description>
                <author><![CDATA[ilya2129]]></author>
                </item>

                
                <item>
                <title><![CDATA[【HD Live Performances】WEB-RiP - FLO - Live @ Glastonbury 2023 WEB-DL H264 1080p AAC2.0-ilya2129]]></title>
                <link><![CDATA[https://sharemania.us/threads/flo-live-glastonbury-2023-web-dl-h264-1080p-aac2-0-ilya2129.223283/]]></link>
                <description><![CDATA[<article>
<blockquote class="messageText SelectQuoteContainer ugc baseHtml">
<div style="text-align: center"><img src="https://i122.fastpic.org/big/2023/0623/b4/b37c6294354538a70aac338bdf3af5b4.png?r=1" class="bbCodeImage LbImage" alt="[​IMG]" data-url="https://i122.fastpic.org/big/2023/0623/b4/b37c6294354538a70aac338bdf3af5b4.png?r=1" style=""><br>
<br>
<a href="https://postimg.cc/rDsdGCWr" target="_blank" class="externalLink" rel="nofollow"><img src="https://i.postimg.cc/rDsdGCWr/vlcsnap-2023-06-24-15h35m30s270.png" class="bbCodeImage LbImage" alt="[​IMG]" data-url="https://i.postimg.cc/rDsdGCWr/vlcsnap-2023-06-24-15h35m30s270.png"></a> <a href="https://postimg.cc/v16ckY08" target="_blank" class="externalLink" rel="nofollow"><img src="https://i.postimg.cc/v16ckY08/vlcsnap-2023-06-24-15h35m31s473.png" class="bbCodeImage LbImage" alt="[​IMG]" data-url="https://i.postimg.cc/v16ckY08/vlcsnap-2023-06-24-15h35m31s473.png"></a> <a href="https://postimg.cc/tZQYHKc3" target="_blank" class="externalLink" rel="nofollow"><img src="https://i.postimg.cc/tZQYHKc3/vlcsnap-2023-06-24-15h35m32s771.png" class="bbCodeImage LbImage" alt="[​IMG]" data-url="https://i.postimg.cc/tZQYHKc3/vlcsnap-2023-06-24-15h35m32s771.png"></a> <a href="https://postimg.cc/Lgm5Jz2h" target="_blank" class="externalLink" rel="nofollow"><img src="https://i.postimg.cc/Lgm5Jz2h/vlcsnap-2023-06-24-15h35m34s196.png" class="bbCodeImage LbImage" alt="[​IMG]" data-url="https://i.postimg.cc/Lgm5Jz2h/vlcsnap-2023-06-24-15h35m34s196.png"></a> <a href="https://postimg.cc/64z3nypc" target="_blank" class="externalLink" rel="nofollow"><img src="https://i.postimg.cc/64z3nypc/vlcsnap-2023-06-24-15h35m35s632.png" class="bbCodeImage LbImage" alt="[​IMG]" data-url="https://i.postimg.cc/64z3nypc/vlcsnap-2023-06-24-15h35m35s632.png"></a> <a href="https://postimg.cc/bdf6wLSL" target="_blank" class="externalLink" rel="nofollow"><img src="https://i.postimg.cc/bdf6wLSL/vlcsnap-2023-06-24-15h35m37s378.png" class="bbCodeImage LbImage" alt="[​IMG]" data-url="https://i.postimg.cc/bdf6wLSL/vlcsnap-2023-06-24-15h35m37s378.png"></a> <br>
<br>
​</div><br>
<div class="bbCodeBlock bbCodeCode">
<div class="type">Code:</div>
<pre>General
Complete name                            : D:\FLO - Live @ Glastonbury 2023 WEB-DL H264 1080p AAC2.0-ilya2129.mp4
Format                                   : MPEG-4
Format profile                           : Base Media
Codec ID                                 : isom (isom/iso2/avc1/mp41)
File size                                : 1.39 GiB
Duration                                 : 19 min 3 s
Overall bit rate mode                    : Variable
Overall bit rate                         : 10.5 Mb/s
Frame rate                               : 50.000 FPS
Collection                               : Glastonbury: 2023
Season                                   : 2023
Album                                    : Glastonbury: 2023
Album/Performer                          : BBC TV
Part/Position                            : 2023
Track name                               : FLO
Grouping                                 : Music,Performances &amp; Events,Hip Hop, RnB &amp; Dancehall
Performer                                : BBC Music
Composer                                 : BBC iPlayer
Genre                                    : Music
ContentType                              : TV Show
Description                              : Radio 1's Sound of 2023 singers impress in their biggest festival slot yet.
Recorded date                            : 2023-06-24 12:07:41 UTC
Tagged date                              : 2023-06-24 12:07:41 UTC
Copyright                                : 2023 British Broadcasting Corporation, all rights reserved
Cover                                    : Yes
Lyrics                                   : Radio 1's Sound of 2023 singers impress in their biggest festival slot yet. /  / PLAY: https://www.bbc.co.uk/iplayer/episode/p0ft1mbb /  / INFO: https://www.bbc.co.uk/programmes/p0ft1mbb
Comment                                  : Radio 1's Sound of 2023 singers impress in their biggest festival slot yet.
Part_ID                                  : p0ft1mbb
TVNetworkName                            : BBC Music
LongDescription                          : Radio 1's Sound of 2023 singers impress in their biggest festival slot yet. /  / PLAY: https://www.bbc.co.uk/iplayer/episode/p0ft1mbb /  / INFO: https://www.bbc.co.uk/programmes/p0ft1mbb

Video
ID                                       : 1
Format                                   : AVC
Format/Info                              : Advanced Video Codec
Format profile                           : High@L4.2
Format settings                          : CABAC / 4 Ref Frames
Format settings, CABAC                   : Yes
Format settings, Reference frames        : 4 frames
Codec ID                                 : avc1
Codec ID/Info                            : Advanced Video Coding
Duration                                 : 19 min 3 s
Bit rate mode                            : Variable
Bit rate                                 : 10.3 Mb/s
Maximum bit rate                         : 12.0 Mb/s
Width                                    : 1 920 pixels
Height                                   : 1 080 pixels
Display aspect ratio                     : 16:9
Frame rate mode                          : Constant
Frame rate                               : 50.000 FPS
Color space                              : YUV
Chroma subsampling                       : 4:2:0
Bit depth                                : 8 bits
Scan type                                : Progressive
Bits/(Pixel*Frame)                       : 0.100
Stream size                              : 1.38 GiB (99%)
Color range                              : Limited
Color primaries                          : BT.709
Transfer characteristics                 : BT.709
Matrix coefficients                      : BT.709
Codec configuration box                  : avcC

Audio
ID                                       : 2
Format                                   : AAC LC
Format/Info                              : Advanced Audio Codec Low Complexity
Codec ID                                 : mp4a-40-2
Duration                                 : 19 min 3 s
Bit rate mode                            : Variable
Bit rate                                 : 128 kb/s
Maximum bit rate                         : 131 kb/s
Channel(s)                               : 2 channels
Channel layout                           : L R
Sampling rate                            : 48.0 kHz
Frame rate                               : 46.875 FPS (1024 SPF)
Compression mode                         : Lossy
Stream size                              : 17.4 MiB (1%)
Language                                 : English
Default                                  : Yes
Alternate group                          : 1

</pre>
</div>
<div class="bbCodeBlock bbCodeVfcHH HiddenContent">
<div class="attribution type">Hidden Content:</div>
<blockquote>You must reply before you can see the hidden data contained here.</blockquote>
</div>
<div class="messageTextEndMarker">&nbsp;</div>
</blockquote>
</article>]]></description>
                <author><![CDATA[ilya2129]]></author>
                </item>

                
                <item>
                <title><![CDATA[【HD Live Performances】WEB-RiP - Hozier - Live @ Glastonbury 2023 WEB-DL H264 1080p AAC2.0-ilya2129]]></title>
                <link><![CDATA[https://sharemania.us/threads/hozier-live-glastonbury-2023-web-dl-h264-1080p-aac2-0-ilya2129.223284/]]></link>
                <description><![CDATA[<article>
<blockquote class="messageText SelectQuoteContainer ugc baseHtml">
<div style="text-align: center"><img src="https://i122.fastpic.org/big/2023/0623/b4/b37c6294354538a70aac338bdf3af5b4.png?r=1" class="bbCodeImage LbImage" alt="[​IMG]" data-url="https://i122.fastpic.org/big/2023/0623/b4/b37c6294354538a70aac338bdf3af5b4.png?r=1" style=""><br>
<br>
<a href="https://postimg.cc/SnbQZBnC" target="_blank" class="externalLink" rel="nofollow"><img src="https://i.postimg.cc/SnbQZBnC/vlcsnap-2023-06-24-15h38m44s110.png" class="bbCodeImage LbImage" alt="[​IMG]" data-url="https://i.postimg.cc/SnbQZBnC/vlcsnap-2023-06-24-15h38m44s110.png"></a> <a href="https://postimg.cc/Y4bpCjbz" target="_blank" class="externalLink" rel="nofollow"><img src="https://i.postimg.cc/Y4bpCjbz/vlcsnap-2023-06-24-15h38m45s676.png" class="bbCodeImage LbImage" alt="[​IMG]" data-url="https://i.postimg.cc/Y4bpCjbz/vlcsnap-2023-06-24-15h38m45s676.png"></a> <a href="https://postimg.cc/1nXynPdh" target="_blank" class="externalLink" rel="nofollow"><img src="https://i.postimg.cc/1nXynPdh/vlcsnap-2023-06-24-15h38m47s416.png" class="bbCodeImage LbImage" alt="[​IMG]" data-url="https://i.postimg.cc/1nXynPdh/vlcsnap-2023-06-24-15h38m47s416.png"></a> <a href="https://postimg.cc/wyrgDZKt" target="_blank" class="externalLink" rel="nofollow"><img src="https://i.postimg.cc/wyrgDZKt/vlcsnap-2023-06-24-15h38m48s924.png" class="bbCodeImage LbImage" alt="[​IMG]" data-url="https://i.postimg.cc/wyrgDZKt/vlcsnap-2023-06-24-15h38m48s924.png"></a> <a href="https://postimg.cc/zHR5775x" target="_blank" class="externalLink" rel="nofollow"><img src="https://i.postimg.cc/zHR5775x/vlcsnap-2023-06-24-15h38m50s876.png" class="bbCodeImage LbImage" alt="[​IMG]" data-url="https://i.postimg.cc/zHR5775x/vlcsnap-2023-06-24-15h38m50s876.png"></a> <a href="https://postimg.cc/8sF1TpWL" target="_blank" class="externalLink" rel="nofollow"><img src="https://i.postimg.cc/8sF1TpWL/vlcsnap-2023-06-24-15h38m52s630.png" class="bbCodeImage LbImage" alt="[​IMG]" data-url="https://i.postimg.cc/8sF1TpWL/vlcsnap-2023-06-24-15h38m52s630.png"></a> <a href="https://postimg.cc/SjwmsB73" target="_blank" class="externalLink" rel="nofollow"><img src="https://i.postimg.cc/SjwmsB73/vlcsnap-2023-06-24-15h38m55s526.png" class="bbCodeImage LbImage" alt="[​IMG]" data-url="https://i.postimg.cc/SjwmsB73/vlcsnap-2023-06-24-15h38m55s526.png"></a> <br>
<br>
<i><br>
Eat Your Young<br>
From Eden<br>
Jackie and Wilson<br>
To Be Alone<br>
Dinner &amp; Diatribes<br>
Would That I<br>
Francesca<br>
Work Song<br>
Someone New<br>
Angel of Small Death and the Codeine Scene<br>
Almost (Sweet Music)<br>
Movement<br>
Take Me to Church<br>
</i><br>
<br>
​</div><br>
<div class="bbCodeBlock bbCodeCode">
<div class="type">Code:</div>
<pre>General
Complete name                            : D:\Hozier - Live @ Glastonbury 2023 WEB-DL H264 1080p AAC2.0-ilya2129.mp4
Format                                   : MPEG-4
Format profile                           : Base Media
Codec ID                                 : isom (isom/iso2/avc1/mp41)
File size                                : 3.65 GiB
Duration                                 : 1 h 3 min
Overall bit rate mode                    : Variable
Overall bit rate                         : 8 260 kb/s
Frame rate                               : 50.000 FPS
Collection                               : Glastonbury: 2023
Season                                   : 2023
Album                                    : Glastonbury: 2023
Album/Performer                          : BBC TV
Part/Position                            : 2023
Track name                               : Hozier
Grouping                                 : Music,Rock &amp; Indie,Performances &amp; Events
Performer                                : BBC Music
Composer                                 : BBC iPlayer
Genre                                    : Music
ContentType                              : TV Show
Description                              : Melt into the luscious vocals of this beloved Irish singer-songwriter.
Recorded date                            : 2023-06-24 12:01:41 UTC
Tagged date                              : 2023-06-24 12:01:41 UTC
Copyright                                : 2023 British Broadcasting Corporation, all rights reserved
Cover                                    : Yes
Lyrics                                   : Melt into the luscious vocals of this beloved Irish singer-songwriter. /  / PLAY: https://www.bbc.co.uk/iplayer/episode/p0ft12v9 /  / INFO: https://www.bbc.co.uk/programmes/p0ft12v9
Comment                                  : Melt into the luscious vocals of this beloved Irish singer-songwriter.
Part_ID                                  : p0ft12v9
TVNetworkName                            : BBC Music
LongDescription                          : Melt into the luscious vocals of this beloved Irish singer-songwriter. /  / PLAY: https://www.bbc.co.uk/iplayer/episode/p0ft12v9 /  / INFO: https://www.bbc.co.uk/programmes/p0ft12v9

Video
ID                                       : 1
Format                                   : AVC
Format/Info                              : Advanced Video Codec
Format profile                           : High@L4.2
Format settings                          : CABAC / 4 Ref Frames
Format settings, CABAC                   : Yes
Format settings, Reference frames        : 4 frames
Codec ID                                 : avc1
Codec ID/Info                            : Advanced Video Coding
Duration                                 : 1 h 3 min
Bit rate mode                            : Variable
Bit rate                                 : 8 123 kb/s
Maximum bit rate                         : 12.0 Mb/s
Width                                    : 1 920 pixels
Height                                   : 1 080 pixels
Display aspect ratio                     : 16:9
Frame rate mode                          : Constant
Frame rate                               : 50.000 FPS
Color space                              : YUV
Chroma subsampling                       : 4:2:0
Bit depth                                : 8 bits
Scan type                                : Progressive
Bits/(Pixel*Frame)                       : 0.078
Stream size                              : 3.59 GiB (98%)
Color range                              : Limited
Color primaries                          : BT.709
Transfer characteristics                 : BT.709
Matrix coefficients                      : BT.709
Codec configuration box                  : avcC

Audio
ID                                       : 2
Format                                   : AAC LC
Format/Info                              : Advanced Audio Codec Low Complexity
Codec ID                                 : mp4a-40-2
Duration                                 : 1 h 3 min
Bit rate mode                            : Variable
Bit rate                                 : 128 kb/s
Maximum bit rate                         : 131 kb/s
Channel(s)                               : 2 channels
Channel layout                           : L R
Sampling rate                            : 48.0 kHz
Frame rate                               : 46.875 FPS (1024 SPF)
Compression mode                         : Lossy
Stream size                              : 58.0 MiB (2%)
Language                                 : English
Default                                  : Yes
Alternate group                          : 1

</pre>
</div>
<div class="bbCodeBlock bbCodeVfcHH HiddenContent">
<div class="attribution type">Hidden Content:</div>
<blockquote>You must reply before you can see the hidden data contained here.</blockquote>
</div>
<div class="messageTextEndMarker">&nbsp;</div>
</blockquote>
</article>]]></description>
                <author><![CDATA[ilya2129]]></author>
                </item>

                </channel></rss>